<?xml version="1.0" encoding="iso-8859-1"?>
<!-- Uploaded to: SVG Repo, www.svgrepo.com, Generator: SVG Repo Mixer Tools -->
<svg fill="#000000" height="800px" width="800px" version="1.1" id="Layer_1" xmlns="http://www.w3.org/2000/svg" xmlns:xlink="http://www.w3.org/1999/xlink" 
	 viewBox="0 0 511.999 511.999" xml:space="preserve">
<g>
	<g>
		<path d="M464.585,14.332c-19.111-19.11-50.207-19.11-69.318,0l-88.113,88.113c-10.991-7.609-26.212-6.545-35.993,3.235
			c-8.388,8.388-10.36,20.779-5.958,31.073l-56.058,56.058c-3.462,3.464-3.462,9.076,0,12.539c3.462,3.461,9.076,3.461,12.537,0
			l54.192-54.193l60.48,60.48c-0.123,0.017-0.248,0.033-0.37,0.05c-20.829,2.79-42.365,5.675-65.124,20.169
			c-8.784,5.594-15.702,11.608-21.15,18.386c-10.064,12.522-14.673,22.774-19.13,32.689c-1.752,3.896-3.563,7.925-5.714,12.112
			c-1.343,2.61-13.812,25.977-37.776,42.341c-25.492,17.406-52.369,18.625-65.287,19.212c-15.534,0.705-30.973-1.079-46.071-5.292
			l67.736-67.737c3.462-3.464,3.462-9.076,0-12.539c-3.462-3.461-9.076-3.461-12.537,0l-95.251,95.251
			c-1.663,1.663-2.597,3.917-2.597,6.27c0,2.352,0.934,4.605,2.597,6.27c6.387,6.386,13.3,11.931,20.595,16.649
			c20.644,13.353,44.377,20.038,68.115,20.038c32.126,0,64.252-12.229,88.71-36.685L358.745,233.17l0.248,0.248
			c5.501,5.5,12.725,8.25,19.951,8.25c7.225,0,14.452-2.751,19.953-8.25c11.002-11.003,11.002-28.902,0-39.905l-22.088-22.088
			l87.773-87.775C483.696,64.54,483.696,33.443,464.585,14.332z M200.56,366.277c-31.165,31.165-76.831,39.207-115.477,24.124
			c-0.505-0.197-1.001-0.422-1.504-0.628c-1.036-0.422-2.073-0.837-3.098-1.293c-9.132-4.064-17.81-9.459-25.737-16.187l6.822-6.822
			c19.868,6.804,40.371,9.777,61.041,8.834c13.414-0.609,44.828-2.033,74.482-22.281c27.574-18.83,41.992-45.854,43.546-48.876
			c2.365-4.602,4.273-8.846,6.119-12.951c4.365-9.71,8.135-18.097,16.779-28.849c4.215-5.246,9.729-10.002,16.853-14.539
			c19.185-12.218,36.793-14.714,57.075-17.434L200.56,366.277z M386.362,206.051c4.088,4.088,4.088,10.739,0,14.827
			c-4.089,4.089-10.741,4.089-14.828,0L283.7,133.045c-4.088-4.088-4.088-10.739,0-14.827c2.044-2.044,4.728-3.066,7.414-3.066
			c2.686,0,5.37,1.021,7.414,3.066L386.362,206.051z M452.048,71.113l-87.65,87.65l-44.242-44.244l87.65-87.649
			c12.197-12.197,32.044-12.198,44.242-0.001C464.244,39.068,464.244,58.915,452.048,71.113z"/>
	</g>
</g>
<g>
	<g>
		<path d="M174.793,239.701c-3.462-3.461-9.076-3.461-12.537,0l-8.866,8.866c-3.462,3.464-3.462,9.076,0,12.539
			c1.731,1.729,4,2.596,6.269,2.596c2.268,0,4.538-0.865,6.269-2.596l8.866-8.866C178.255,248.776,178.255,243.164,174.793,239.701z
			"/>
	</g>
</g>
<g>
	<g>
		<path d="M153.982,436.158c-3.439-3.336-8.906-3.336-12.345,0c-6.27,6.081-26.725,27.147-26.725,42.943
			c0,18.141,14.757,32.898,32.898,32.898c18.141,0,32.898-14.757,32.898-32.898C180.707,463.305,160.251,442.239,153.982,436.158z
			 M147.809,494.268c-8.363,0-15.166-6.804-15.166-15.166c0-3.791,5.88-13.517,15.146-23.789
			c8.024,8.969,15.188,19.311,15.188,23.789C162.975,487.465,156.172,494.268,147.809,494.268z"/>
	</g>
</g>
</svg>